G04 ================== begin FILE IDENTIFICATION RECORD ==================*
G04 Layout Name:  C:/Users/user/Desktop/DA_Convertor/DC_Convertor.brd*
G04 Film Name:    TOP*
G04 File Format:  Gerber RS274X*
G04 File Origin:  Cadence Allegro 17.2-P019*
G04 Origin Date:  Wed Jul 31 16:14:09 2019*
G04 *
G04 Layer:  ETCH/TOP*
G04 Layer:  PIN/TOP*
G04 Layer:  VIA CLASS/TOP*
G04 *
G04 Offset:    (0.000 0.000)*
G04 Mirror:    No*
G04 Mode:      Positive*
G04 Rotation:  0*
G04 FullContactRelief:  No*
G04 UndefLineWidth:     0.000*
G04 ================== end FILE IDENTIFICATION RECORD ====================*
%FSLAX25Y25*MOMM*%
%IR0*IPPOS*OFA0.00000B0.00000*MIA0B0*SFA1.00000B1.00000*%
%ADD11C,1.524*%
%ADD12C,1.651*%
%ADD13R,1.524X1.524*%
%ADD15C,1.397*%
%ADD14R,1.397X1.397*%
%ADD10C,.635*%
%ADD16C,1.*%
%ADD17C,.5*%
G75*
%LPD*%
G75*
G54D10*
X500000Y500000D03*
Y6500000D03*
X9500000Y500000D03*
Y6500000D03*
G54D11*
X500000Y2738000D03*
Y2992000D03*
Y3246000D03*
Y3500000D03*
X1079500Y5842000D03*
X1524000Y2032000D03*
Y2286000D03*
Y2540000D03*
X1333500Y5842000D03*
X2286000Y2032000D03*
Y2286000D03*
Y2540000D03*
Y2794000D03*
X3937000Y1841500D03*
Y2095500D03*
Y2349500D03*
X4699000Y1841500D03*
Y2095500D03*
Y2349500D03*
Y2603500D03*
X5524500Y3175000D03*
Y3429000D03*
Y3683000D03*
Y3937000D03*
Y4191000D03*
Y4445000D03*
X6286500Y3175000D03*
Y3429000D03*
Y3683000D03*
Y3937000D03*
Y4191000D03*
Y4445000D03*
Y4699000D03*
X8340000Y1578000D03*
Y1832000D03*
Y2086000D03*
X9102000Y1578000D03*
Y1832000D03*
Y2086000D03*
Y2340000D03*
X9500000Y3254000D03*
Y3000000D03*
G54D12*
X1079500Y3810000D03*
Y4826000D03*
X1460500Y698500D03*
Y1270000D03*
X1841500Y5842000D03*
X2476500Y698500D03*
Y1270000D03*
X3492500Y2095500D03*
Y3111500D03*
X2857500Y5842000D03*
X4000500Y4826000D03*
Y5842000D03*
X4635500Y3937000D03*
Y4953000D03*
Y5524500D03*
X5334000Y1333500D03*
Y1841500D03*
X5143500Y2603500D03*
X5170000Y4000000D03*
Y5016000D03*
X5651500Y5524500D03*
X6350000Y1333500D03*
Y1841500D03*
X6159500Y2603500D03*
X6750000Y4200000D03*
X6740000Y3930000D03*
X6750000Y5216000D03*
X7366000Y1079500D03*
Y2095500D03*
X7747000Y3175000D03*
X7756000Y3930000D03*
X7747000Y5270500D03*
X8090000Y970000D03*
X8763000Y3175000D03*
Y5270500D03*
X9106000Y970000D03*
G54D13*
X1524000Y2794000D03*
X3937000Y2603500D03*
X5524500Y4699000D03*
X8340000Y2340000D03*
G54D14*
X4635500Y5969000D03*
X6290000Y5530000D03*
G54D15*
X5549900Y5969000D03*
X7204400Y5530000D03*
G54D16*
G01X500000Y3500000D02*
X639000D01*
X646500Y3492500D01*
X2032000D01*
X2095500Y3429000D01*
Y2730500D01*
X2286000Y2540000D01*
G01X3937000Y1841500D02*
X1714500D01*
X1524000Y2032000D01*
G01X4699000Y2349500D02*
X4508500Y2540000D01*
Y2694000D01*
X4408500Y2794000D01*
X2540000D01*
X2286000Y2540000D01*
G01X8340000Y1578000D02*
X8201000D01*
X8191500Y1587500D01*
X4191000D01*
X3937000Y1841500D01*
G01X9102000Y2086000D02*
X8950400Y2237600D01*
Y2416100D01*
X8874900Y2491600D01*
X8232500D01*
X8090400Y2349500D01*
X4699000D01*
G54D17*
G01X1079500Y3810000D02*
X4508500D01*
X4635500Y3937000D01*
G01X1079500Y4826000D02*
X4000500D01*
G01X1333500Y5842000D02*
X1841500D01*
G01X2857500D02*
X4000500D01*
G01X3492500Y2095500D02*
X3937000D01*
G01X5524500Y4699000D02*
X5638500D01*
X5715000Y4622500D01*
Y4241000D01*
X5765000Y4191000D01*
X6286500D01*
G01X5170000Y5016000D02*
X8713000D01*
X8763000Y5066000D01*
Y5270500D01*
G01X5651500Y5524500D02*
X6176800D01*
X6182300Y5530000D01*
X6290000D01*
G01X6286500Y3175000D02*
X7747000D01*
G01X6286500Y3937000D02*
X6612600D01*
X6619600Y3930000D01*
X6740000D01*
G01X6286500Y4191000D02*
X6620600D01*
X6629600Y4200000D01*
X6750000D01*
G01X7366000Y2095500D02*
X8216500D01*
X8226000Y2086000D01*
X8340000D01*
M02*
